# xmcd CD database file
# Copyright (C) 1996 Ti Kan
#
# Track frame offsets:
# 	150
# 	12730
# 	27265
# 	42805
# 	57247
# 	72372
# 	88245
# 	106397
# 	119602
# 	133200
# 	147310
# 	164915
#
# Disc length: 2447 seconds
#
# Revision: 1
# Processed by: cddbd v1.4b41PL1 Copyright (c) Steve Scherf et al.
# Submitted via: DiscPlay 3.3.1
#
DISCID=ba098d0c
DTITLE=Asleep At The Wheel - Keepin' Me Up Nights
DYEAR=1900
DGENRE=
TTITLE0=Keepin' Me Up Nights
TTITLE1=Boot Scootin' Boogie
TTITLE2=Dance With Who Brung You
TTITLE3=Quittin' Time
TTITLE4=Eyes
TTITLE5=Goin' Home
TTITLE6=That's The Way Love Is
TTITLE7=Gone But Not Forgotten
TTITLE8=You Don't Have To Go To Memphis
TTITLE9=Beat Me Daddy (Eight To The Bar)
TTITLE10=Texas Fiddle Man
TTITLE11=Pedernales Stroll
EXTD=
EXTT0=
EXTT1=
EXTT2=
EXTT3=
EXTT4=
EXTT5=
EXTT6=
EXTT7=
EXTT8=
EXTT9=
EXTT10=
EXTT11=
PLAYORDER=
